<svg xmlns="http://www.w3.org/2000/svg" fill="none" viewBox="0 0 1076 190"><path fill="currentColor" d="M266.444 151.265c-8.394 0-15.804-1.503-22.23-4.508-6.425-3.006-11.452-7.307-15.079-12.903-3.627-5.596-5.441-12.333-5.441-20.209v-4.353h20.209v4.353c0 6.529 2.021 11.452 6.063 14.768 4.042 3.213 9.534 4.819 16.478 4.819 7.047 0 12.281-1.399 15.701-4.197 3.523-2.798 5.285-6.374 5.285-10.726 0-3.006-.881-5.441-2.643-7.307-1.658-1.865-4.145-3.368-7.461-4.508-3.213-1.243-7.151-2.383-11.815-3.42l-3.575-.777c-7.462-1.658-13.887-3.73-19.276-6.218-5.286-2.591-9.379-5.96-12.281-10.105-2.798-4.145-4.197-9.534-4.197-16.167 0-6.633 1.554-12.28 4.663-16.944 3.213-4.767 7.669-8.395 13.369-10.882 5.804-2.59 12.592-3.886 20.365-3.886 7.772 0 14.664 1.347 20.675 4.041 6.114 2.591 10.882 6.53 14.302 11.815 3.523 5.182 5.285 11.71 5.285 19.587v4.664h-20.209v-4.664c0-4.145-.829-7.462-2.487-9.949-1.555-2.59-3.835-4.456-6.84-5.596-3.006-1.244-6.581-1.866-10.726-1.866-6.219 0-10.83 1.192-13.836 3.576-2.902 2.28-4.352 5.44-4.352 9.482 0 2.695.673 4.975 2.02 6.84 1.451 1.866 3.576 3.42 6.374 4.664 2.798 1.244 6.374 2.332 10.726 3.264l3.576.778c7.772 1.658 14.509 3.782 20.209 6.373 5.803 2.591 10.311 6.011 13.524 10.26 3.213 4.249 4.819 9.69 4.819 16.323 0 6.632-1.71 12.488-5.13 17.566-3.316 4.975-8.083 8.913-14.302 11.814-6.114 2.799-13.369 4.198-21.763 4.198ZM352.479 151.265c-7.669 0-14.561-1.555-20.675-4.664-6.115-3.109-10.934-7.617-14.458-13.524-3.523-5.908-5.285-13.007-5.285-21.297v-2.488c0-8.291 1.762-15.39 5.285-21.297 3.524-5.907 8.343-10.415 14.458-13.524 6.114-3.11 13.006-4.664 20.675-4.664 7.669 0 14.561 1.555 20.675 4.664 6.115 3.109 10.934 7.617 14.457 13.524 3.524 5.907 5.286 13.006 5.286 21.297v2.488c0 8.29-1.762 15.389-5.286 21.297-3.523 5.907-8.342 10.415-14.457 13.524-6.114 3.109-13.006 4.664-20.675 4.664Zm0-17.411c6.011 0 10.985-1.917 14.923-5.752 3.939-3.938 5.908-9.534 5.908-16.789v-1.554c0-7.255-1.969-12.8-5.908-16.634-3.834-3.938-8.809-5.907-14.923-5.907-6.011 0-10.985 1.969-14.924 5.907-3.938 3.835-5.907 9.379-5.907 16.634v1.554c0 7.255 1.969 12.851 5.907 16.789 3.939 3.835 8.913 5.752 14.924 5.752ZM439.425 151.265c-7.462 0-14.25-1.555-20.365-4.664-6.011-3.109-10.778-7.617-14.301-13.524-3.524-5.908-5.286-13.058-5.286-21.453v-2.176c0-8.395 1.762-15.545 5.286-21.453 3.523-5.907 8.29-10.415 14.301-13.524 6.115-3.11 12.903-4.664 20.365-4.664 7.358 0 13.68 1.296 18.965 3.886 5.285 2.591 9.534 6.167 12.747 10.727 3.316 4.456 5.493 9.534 6.529 15.234l-18.965 4.042c-.415-3.109-1.347-5.907-2.798-8.394-1.451-2.488-3.524-4.457-6.218-5.908-2.591-1.45-5.856-2.176-9.794-2.176-3.938 0-7.514.88-10.726 2.643-3.109 1.658-5.597 4.197-7.462 7.617-1.762 3.316-2.643 7.41-2.643 12.281v1.554c0 4.871.881 9.017 2.643 12.436 1.865 3.317 4.353 5.856 7.462 7.618 3.212 1.658 6.788 2.487 10.726 2.487 5.907 0 10.364-1.503 13.369-4.508 3.109-3.109 5.078-7.151 5.907-12.126l18.966 4.509a42.708 42.708 0 0 1-6.996 15.079c-3.213 4.456-7.462 7.979-12.747 10.57s-11.607 3.887-18.965 3.887ZM486.517 149.088V71.984h19.587v77.104h-19.587Zm9.794-86.12c-3.524 0-6.529-1.14-9.016-3.42-2.384-2.28-3.576-5.286-3.576-9.017 0-3.73 1.192-6.736 3.576-9.016 2.487-2.28 5.492-3.42 9.016-3.42 3.627 0 6.633 1.14 9.016 3.42 2.384 2.28 3.576 5.285 3.576 9.016 0 3.73-1.192 6.736-3.576 9.016-2.383 2.28-5.389 3.42-9.016 3.42ZM543.977 151.265c-5.493 0-10.416-.933-14.768-2.798-4.353-1.97-7.825-4.768-10.416-8.395-2.487-3.731-3.731-8.239-3.731-13.524 0-5.286 1.244-9.69 3.731-13.214 2.591-3.627 6.115-6.322 10.571-8.083 4.56-1.866 9.742-2.799 15.545-2.799h21.142V98.1c0-3.627-1.14-6.581-3.42-8.861-2.28-2.384-5.907-3.576-10.882-3.576-4.871 0-8.498 1.14-10.881 3.42-2.384 2.177-3.939 5.027-4.664 8.55l-18.033-6.062c1.244-3.939 3.213-7.514 5.908-10.727 2.798-3.316 6.477-5.959 11.037-7.928 4.663-2.072 10.312-3.109 16.944-3.109 10.157 0 18.188 2.54 24.096 7.617 5.907 5.078 8.86 12.437 8.86 22.075v28.759c0 3.109 1.451 4.663 4.353 4.663h6.218v16.167h-13.058c-3.834 0-6.995-.932-9.483-2.798-2.487-1.865-3.73-4.352-3.73-7.462v-.155h-2.954c-.415 1.244-1.347 2.902-2.798 4.975-1.451 1.969-3.731 3.73-6.84 5.285-3.109 1.554-7.358 2.332-12.747 2.332Zm3.42-15.857c5.492 0 9.949-1.502 13.369-4.508 3.523-3.109 5.285-7.202 5.285-12.28v-1.555h-19.743c-3.627 0-6.477.777-8.549 2.332-2.073 1.554-3.11 3.731-3.11 6.529s1.089 5.078 3.265 6.84c2.176 1.762 5.337 2.642 9.483 2.642ZM602.136 149.088V40.271h19.587v108.817h-19.587ZM666.731 149.088V40.271h47.258c6.84 0 12.799 1.192 17.877 3.575 5.078 2.384 9.017 5.752 11.815 10.105 2.798 4.353 4.197 9.483 4.197 15.39v1.865c0 6.53-1.555 11.815-4.664 15.856-3.109 4.042-6.943 6.996-11.503 8.861v2.799c4.145.207 7.358 1.658 9.638 4.352 2.28 2.591 3.42 6.063 3.42 10.416v35.598h-20.52v-32.645c0-2.487-.674-4.508-2.021-6.062-1.243-1.555-3.368-2.332-6.373-2.332h-28.604v41.039h-20.52Zm20.52-59.694h24.562c4.871 0 8.653-1.295 11.348-3.886 2.798-2.694 4.197-6.218 4.197-10.57v-1.555c0-4.353-1.347-7.825-4.042-10.416-2.694-2.694-6.529-4.041-11.503-4.041h-24.562v30.468ZM792.934 151.265c-7.669 0-14.457-1.607-20.364-4.819-5.804-3.317-10.364-7.928-13.68-13.836-3.213-6.011-4.819-13.058-4.819-21.141v-1.866c0-8.083 1.606-15.079 4.819-20.986 3.212-6.01 7.721-10.623 13.524-13.835 5.804-3.317 12.54-4.975 20.209-4.975 7.565 0 14.146 1.71 19.743 5.13 5.596 3.317 9.949 7.98 13.058 13.991 3.109 5.907 4.663 12.799 4.663 20.675v6.685h-56.118c.207 5.285 2.176 9.586 5.907 12.902 3.731 3.317 8.291 4.975 13.68 4.975 5.492 0 9.534-1.192 12.125-3.576 2.591-2.383 4.56-5.026 5.907-7.928l16.012 8.395c-1.451 2.694-3.575 5.648-6.374 8.861-2.694 3.109-6.321 5.803-10.881 8.083-4.56 2.177-10.364 3.265-17.411 3.265Zm-18.81-49.59h36.065c-.414-4.456-2.228-8.032-5.441-10.726-3.109-2.695-7.202-4.042-12.28-4.042-5.286 0-9.483 1.347-12.592 4.042-3.109 2.694-5.026 6.27-5.752 10.726ZM839.748 149.088V71.984h19.277v8.394h2.798c1.347-2.59 3.575-4.819 6.684-6.684 3.109-1.97 7.203-2.954 12.281-2.954 5.493 0 9.897 1.088 13.214 3.264 3.316 2.073 5.855 4.82 7.617 8.24h2.798c1.762-3.317 4.249-6.063 7.462-8.24 3.212-2.176 7.772-3.264 13.68-3.264 4.767 0 9.068 1.036 12.902 3.109 3.938 1.97 7.047 5.026 9.327 9.172 2.384 4.041 3.576 9.171 3.576 15.39v50.677h-19.587V99.81c0-4.25-1.088-7.41-3.265-9.483-2.176-2.176-5.233-3.264-9.171-3.264-4.457 0-7.929 1.45-10.416 4.352-2.383 2.798-3.575 6.84-3.575 12.126v45.547h-19.587V99.81c0-4.25-1.089-7.41-3.265-9.483-2.176-2.176-5.234-3.264-9.172-3.264-4.456 0-7.928 1.45-10.415 4.352-2.384 2.798-3.575 6.84-3.575 12.126v45.547h-19.588ZM964.658 149.088V71.984h19.587v77.104h-19.587Zm9.793-86.12c-3.523 0-6.529-1.14-9.016-3.42-2.384-2.28-3.576-5.286-3.576-9.017 0-3.73 1.192-6.736 3.576-9.016 2.487-2.28 5.493-3.42 9.016-3.42 3.627 0 6.633 1.14 9.016 3.42 2.384 2.28 3.576 5.285 3.576 9.016 0 3.73-1.192 6.736-3.576 9.016-2.383 2.28-5.389 3.42-9.016 3.42ZM991.337 149.088l27.983-38.863-27.672-38.241h22.692l17.57 25.65h2.8l17.56-25.65h22.7l-27.67 38.241 27.98 38.863h-23.01l-17.56-25.96h-2.8l-17.57 25.96h-23.003Z"/><path fill="currentColor" fill-rule="evenodd" d="M95 190c52.467 0 95-42.533 95-95S147.467 0 95 0 0 42.533 0 95s42.533 95 95 95ZM92.933 50.192h30.934a4.31 4.31 0 0 1 3.063 1.109 4.16 4.16 0 0 1 1.368 2.912 4.146 4.146 0 0 1-1.129 3.01 4.295 4.295 0 0 1-2.963 1.344H64.509a23.624 23.624 0 0 0-13.644 4.167 22.468 22.468 0 0 0-8.768 11.458 22.032 22.032 0 0 0 .534 16.242 22.612 22.612 0 0 0 5.537 7.982 23.09 23.09 0 0 0 8.42 4.984 23.07 23.07 0 0 0 7.751 1.259h38.651a.567.567 0 0 0 .377-.098.54.54 0 0 0 .216-.319 12.335 12.335 0 0 1 3.649-5.038 12.637 12.637 0 0 1 5.679-2.662 12.915 12.915 0 0 1 8.856 1.357 12.555 12.555 0 0 1 5.746 6.76 11.85 11.85 0 0 1 .635 6.302 11.951 11.951 0 0 1-2.704 5.748 12.094 12.094 0 0 1-5.18 3.915 12.319 12.319 0 0 1-6.496.701c-4.936-.691-8.319-3.45-10.236-7.958-.084-.208-.178-.317-.407-.283H64.339a31.62 31.62 0 0 1-17.451-5.092 30.728 30.728 0 0 1-9.118-8.671 30.146 30.146 0 0 1-4.815-11.537 29.961 29.961 0 0 1 .16-13.486A30.268 30.268 0 0 1 39.18 62.2c4.431-5.648 10.729-9.6 17.807-11.175a32.1 32.1 0 0 1 7.572-.833h28.374Zm22.522 62.875c.839 0 1.658-.244 2.356-.702a4.187 4.187 0 0 0 1.561-1.87 4.098 4.098 0 0 0 .241-2.408 4.14 4.14 0 0 0-1.16-2.133 4.303 4.303 0 0 0-4.621-.903 4.225 4.225 0 0 0-1.902 1.534 4.11 4.11 0 0 0-.392 3.91c.213.505.525.965.919 1.352.394.387.861.693 1.375.903a4.316 4.316 0 0 0 1.623.317Zm-20.631 27.242H64.509a4.316 4.316 0 0 1-1.637-.249 4.268 4.268 0 0 1-1.415-.845 4.168 4.168 0 0 1-.978-1.313 4.115 4.115 0 0 1 .72-4.58c.377-.403.831-.73 1.336-.961a4.316 4.316 0 0 1 1.609-.386h59.401a24.166 24.166 0 0 0 13.593-3.983 22.648 22.648 0 0 0 8.378-9.933 22.627 22.627 0 0 0 1.546-13.451 22.863 22.863 0 0 0-6.422-11.974 23.306 23.306 0 0 0-13.458-6.584 23.926 23.926 0 0 0-3.391-.208h-38.43a.619.619 0 0 0-.438.1.6.6 0 0 0-.25.367 12.57 12.57 0 0 1-5.647 6.346 12.913 12.913 0 0 1-8.463 1.379 12.353 12.353 0 0 1-6.04-2.702 12.035 12.035 0 0 1-3.72-5.398 12.075 12.075 0 0 1-.415-7.511 12.254 12.254 0 0 1 4.12-6.34 12.162 12.162 0 0 1 4.683-2.56 12.306 12.306 0 0 1 5.35-.323c4.951.7 8.3 3.467 10.226 7.967a.367.367 0 0 0 .154.216c.076.051.17.072.261.059h38.744c7.752-.068 15.256 2.687 21.064 7.733 5.038 4.171 8.559 9.84 10.031 16.15 2.621 11.15-.05 21.025-8.013 29.392a31.9 31.9 0 0 1-10.568 7.134 32.374 32.374 0 0 1-12.573 2.466l-29.043-.008ZM72.819 85.817c.838 0 1.658-.244 2.355-.702a4.184 4.184 0 0 0 1.562-1.87 4.1 4.1 0 0 0 .241-2.408 4.145 4.145 0 0 0-1.16-2.133 4.264 4.264 0 0 0-2.171-1.14 4.309 4.309 0 0 0-2.45.237 4.225 4.225 0 0 0-1.903 1.534 4.116 4.116 0 0 0-.714 2.315 4.13 4.13 0 0 0 1.242 2.947 4.278 4.278 0 0 0 2.998 1.22ZM43.685 133.81a4.118 4.118 0 0 0-.715 2.315 4.173 4.173 0 0 0 1.254 2.935 4.32 4.32 0 0 0 2.986 1.232c.838 0 1.658-.244 2.355-.702a4.186 4.186 0 0 0 1.562-1.87c.321-.762.405-1.599.241-2.408a4.146 4.146 0 0 0-1.16-2.133 4.302 4.302 0 0 0-4.62-.903 4.223 4.223 0 0 0-1.903 1.534Zm101.653-79.426c0 .824-.249 1.63-.715 2.315a4.224 4.224 0 0 1-1.903 1.534 4.308 4.308 0 0 1-2.449.237 4.262 4.262 0 0 1-2.171-1.14 4.104 4.104 0 0 1-.919-4.54 4.184 4.184 0 0 1 1.561-1.87 4.293 4.293 0 0 1 2.356-.703 4.338 4.338 0 0 1 2.981 1.237 4.191 4.191 0 0 1 1.259 2.93Z" clip-rule="evenodd"/></svg>