<svg xmlns="http://www.w3.org/2000/svg" xml:space="preserve" fill="currentColor" viewBox="0 0 1007 199"><path d="m112.7 142.8 17-45.9h-100c-1.2 0-1.9 1.3-1.3 2.2l23.8 41.6c1.1 1.9 3 3 5.2 3h53.8c.7.1 1.3-.3 1.5-.9z"/><path d="M19.6 16.3 2.2 46.8c-1.1 1.9-.7 4.3 1 5.7l106.1 88.8c3.1 2.6-.1 2.6-.1 2.6h2.3c.5 0 1-.3 1.3-.8l25.2-44c.7-1.3.4-2.9-.7-3.8L38.7 12.9c-6-5.1-15.1-3.5-19.1 3.4z"/><path d="m3.2 52.5.5.4s-2.9-2.8 4.2-2.8H153c1.1 0 1.9-1.3 1.3-2.2L130.1 5.4c-.8-1.4-2.3-2.3-3.9-2.3H29.8c-1.6 0-3.1.9-3.9 2.3L2.2 46.8c-1.1 1.9-.7 4.3 1 5.7zm57.7 103.3 21 36.6c.6 1 2 1 2.6 0l21-36.6c.6-1-.1-2.2-1.3-2.2h-42c-1.2-.1-1.9 1.2-1.3 2.2zm220.5-61.3c-5.6-2.6-12.3-4.7-19.9-6.4l-3.5-.8c-4.3-.9-7.8-2-10.6-3.3-2.8-1.3-4.9-2.8-6.3-4.7-1.3-1.9-2-4.2-2-6.9 0-4.1 1.4-7.3 4.3-9.5 3-2.4 7.5-3.6 13.6-3.6 4.1 0 7.6.6 10.6 1.9 3 1.1 5.2 3 6.7 5.6 1.6 2.5 2.5 5.8 2.5 10v4.7h19.9v-4.7c0-7.9-1.7-14.5-5.2-19.7-3.4-5.3-8.1-9.3-14.1-11.9-5.9-2.7-12.7-4.1-20.4-4.1s-14.4 1.3-20.1 3.9c-5.6 2.5-10 6.2-13.2 11-3.1 4.7-4.6 10.4-4.6 17.1 0 6.7 1.4 12.1 4.1 16.3 2.9 4.2 6.9 7.6 12.1 10.2 5.3 2.5 11.7 4.6 19 6.3l3.5.8c4.6 1 8.5 2.2 11.7 3.4 3.3 1.1 5.7 2.7 7.4 4.5 1.7 1.9 2.6 4.3 2.6 7.4 0 4.4-1.7 8-5.2 10.8-3.4 2.8-8.5 4.2-15.5 4.2-6.8 0-12.3-1.6-16.3-4.9-4-3.3-6-8.3-6-14.9v-4.4h-19.9v4.4c0 7.9 1.8 14.7 5.4 20.3 3.6 5.6 8.5 10 14.9 13 6.3 3 13.6 4.5 21.9 4.5 8.3 0 15.4-1.4 21.5-4.2 6.1-2.9 10.8-6.9 14.1-11.9 3.4-5.1 5.1-11 5.1-17.7s-1.6-12.2-4.8-16.4c-3.1-4.2-7.5-7.7-13.3-10.3zM366 77.8c-6-3.1-12.8-4.7-20.4-4.7s-14.4 1.6-20.4 4.7c-6 3.1-10.8 7.7-14.3 13.6-3.5 5.9-5.2 13.1-5.2 21.4v2.5c0 8.3 1.7 15.5 5.2 21.4 3.5 5.9 8.2 10.5 14.3 13.6 6 3.1 12.8 4.7 20.4 4.7s14.4-1.6 20.4-4.7c6-3.1 10.8-7.7 14.3-13.6 3.5-5.9 5.2-13.1 5.2-21.4v-2.5c0-8.3-1.7-15.5-5.2-21.4-3.5-6-8.3-10.5-14.3-13.6zm.2 37.1c0 7.3-1.9 12.9-5.8 16.9-3.9 3.9-8.8 5.8-14.7 5.8s-10.8-1.9-14.7-5.8c-3.9-4-5.8-9.6-5.8-16.9v-1.6c0-7.3 1.9-12.9 5.8-16.7 3.9-4 8.8-5.9 14.7-5.9 6 0 10.9 2 14.7 5.9 3.9 3.9 5.8 9.4 5.8 16.7v1.6zm69 24.7h-2.1l-22.7-96.3h-20.9l27.3 109.6h34.7l27.3-109.6h-20.9zm51.3-64.3h19.3v77.6h-19.3zm9.7-34.2c-3.5 0-6.4 1.1-8.9 3.4-2.4 2.3-3.5 5.3-3.5 9.1s1.2 6.8 3.5 9.1c2.5 2.3 5.4 3.4 8.9 3.4 3.6 0 6.5-1.1 8.9-3.4 2.4-2.3 3.5-5.3 3.5-9.1s-1.2-6.8-3.5-9.1c-2.4-2.2-5.4-3.4-8.9-3.4zm73.5 68.3c-4.6-1.8-9.8-3.2-15.5-4.2l-4.3-.8c-3.5-.6-6.2-1.5-8.3-2.7-2-1.3-3.1-3.1-3.1-5.6 0-2.3 1-4.1 2.9-5.3 1.9-1.4 4.8-2 8.4-2s6.7.8 9.2 2.5c2.6 1.7 4.2 4.5 5.1 8.5l17.9-5.6c-1.7-6.3-5.4-11.3-11-15.2-5.6-3.9-12.7-5.8-21.2-5.8-9 0-16.3 2.1-21.8 6.3-5.5 4.1-8.3 10-8.3 17.7 0 5.1 1.3 9.3 4 12.5 2.7 3.2 6.2 5.8 10.6 7.7 4.4 1.8 9.3 3.2 14.6 4.2l4.3.8c4.5.8 7.8 1.9 9.8 3.3 2 1.3 3.1 3.1 3.1 5.5s-1.1 4.4-3.2 6.1c-2.1 1.6-5.5 2.3-10 2.3-3 0-5.7-.4-8.3-1.3-2.5-.9-4.5-2.5-6.3-4.5-1.6-2.1-2.8-5-3.5-8.6l-17.8 4.7c1.3 8.1 5.2 14.4 11.5 18.8s14.5 6.6 24.4 6.6c9.7 0 17.4-2.2 23.2-6.6 5.8-4.5 8.7-10.8 8.7-18.9 0-5.4-1.4-9.7-4.1-12.8-2.6-3.5-6.3-6-11-7.6zm80 5.3c0 7.2-1.6 12.8-4.9 16.9-3.3 4-7.9 5.9-13.8 5.9-5.2 0-9.3-1.5-12.1-4.4-2.8-2.9-4.1-7.3-4.1-13.1V75.3h-19.3v46.3c0 6.4 1.2 12 3.7 16.9 2.5 4.9 5.9 8.8 10.3 11.6 4.5 2.7 9.7 4.1 15.6 4.1 6.8 0 12-1.3 15.3-3.8 3.4-2.5 5.7-5.1 6.9-7.7h2.8v10.2h19V75.3h-19.3v39.4zm99.1 17.2v-29c0-9.7-2.9-17.1-8.7-22.2-5.8-5.1-13.8-7.7-23.8-7.7-6.5 0-12.1 1-16.7 3.1-4.5 2-8.1 4.6-10.9 8-2.6 3.2-4.6 6.9-5.8 10.8l17.8 6.1c.7-3.5 2.2-6.4 4.6-8.6 2.4-2.3 5.9-3.4 10.7-3.4 4.9 0 8.5 1.2 10.7 3.6 2.2 2.3 3.4 5.3 3.4 8.9v4.4h-20.9c-5.7 0-10.8.9-15.3 2.8-4.4 1.8-7.9 4.5-10.4 8.1-2.5 3.5-3.7 8-3.7 13.3 0 5.3 1.2 9.9 3.7 13.6 2.6 3.7 6 6.5 10.3 8.5 4.3 1.9 9.1 2.8 14.6 2.8 5.3 0 9.5-.8 12.6-2.3s5.3-3.3 6.7-5.3c1.4-2.1 2.4-3.8 2.8-5h2.9v.2c0 3.1 1.2 5.6 3.7 7.5 2.5 1.9 5.6 2.8 9.4 2.8h12.9v-16.3h-6.1c-3 0-4.5-1.6-4.5-4.7zm-18.7-9.7c0 5.1-1.7 9.2-5.2 12.4-3.4 3-7.8 4.5-13.2 4.5-4.1 0-7.2-.9-9.4-2.7-2.1-1.8-3.2-4.1-3.2-6.9 0-2.8 1-5 3.1-6.6 2-1.6 4.9-2.3 8.4-2.3h19.5v1.6zm37.5-78.9h19.3v109.5h-19.3zm47 82c-4.1 0-7.6 1.4-10.4 4.2-2.8 2.7-4.1 6.3-4.1 10.6 0 4.4 1.4 8 4.1 10.8 2.9 2.7 6.3 4.1 10.4 4.1 4.2 0 7.7-1.4 10.4-4.1 2.8-2.8 4.1-6.4 4.1-10.8s-1.4-7.9-4.1-10.6c-2.7-2.7-6.2-4.2-10.4-4.2zm76.3 7.7c-3 3-7.4 4.5-13.2 4.5-3.9 0-7.4-.8-10.6-2.5-3.1-1.8-5.5-4.3-7.4-7.7-1.7-3.4-2.6-7.6-2.6-12.5v-1.6c0-4.9.9-9 2.6-12.4 1.8-3.4 4.3-6 7.4-7.7 3.2-1.8 6.7-2.7 10.6-2.7 3.9 0 7.1.7 9.7 2.2 2.7 1.5 4.7 3.4 6.1 5.9 1.4 2.5 2.4 5.3 2.8 8.5l18.7-4.1c-1-5.7-3.2-10.9-6.4-15.3-3.2-4.6-7.4-8.2-12.6-10.8-5.2-2.6-11.5-3.9-18.7-3.9-7.4 0-14.1 1.6-20.1 4.7-5.9 3.1-10.6 7.7-14.1 13.6-3.5 5.9-5.2 13.1-5.2 21.6v2.2c0 8.5 1.7 15.7 5.2 21.6 3.5 5.9 8.2 10.5 14.1 13.6 6 3.1 12.7 4.7 20.1 4.7 7.3 0 13.5-1.3 18.7-3.9 5.2-2.6 9.4-6.2 12.6-10.6 3.3-4.6 5.6-9.7 6.9-15.2l-18.7-4.5c-.9 5.1-2.9 9.2-5.9 12.3zm105.5-41.6c-3.5-5.9-8.2-10.5-14.3-13.6-6-3.1-12.8-4.7-20.4-4.7-7.6 0-14.4 1.6-20.4 4.7s-10.8 7.7-14.3 13.6c-3.5 5.9-5.2 13.1-5.2 21.4v2.5c0 8.3 1.7 15.5 5.2 21.4 3.5 5.9 8.2 10.5 14.3 13.6s12.8 4.7 20.4 4.7c7.6 0 14.4-1.6 20.4-4.7 6-3.1 10.8-7.7 14.3-13.6 3.5-5.9 5.2-13.1 5.2-21.4v-2.5c0-8.3-1.8-15.5-5.2-21.4zm-14.1 23.5c0 7.3-1.9 12.9-5.8 16.9-3.9 3.9-8.8 5.8-14.7 5.8-5.9 0-10.8-1.9-14.7-5.8-3.9-4-5.8-9.6-5.8-16.9v-1.6c0-7.3 2-12.9 5.8-16.7 3.9-4 8.8-5.9 14.7-5.9 6 0 10.9 2 14.7 5.9 3.9 3.9 5.8 9.4 5.8 16.7v1.6z"/></svg>